<?xml version="1.0" ?><svg xmlns="http://www.w3.org/2000/svg" width="168" height="168" viewBox="0 0 168 168" fill="none"><path fill-rule="evenodd" clip-rule="evenodd" d="M83.9414 24.8322C51.2166 24.8322 24.6878 51.3609 24.6878 84.0857C24.6878 116.811 51.2165 143.339 83.9414 143.339C85.8664 143.339 87.4269 144.9 87.4269 146.825C87.4269 148.75 85.8664 150.31 83.9414 150.31C47.3666 150.31 17.7168 120.661 17.7168 84.0857C17.7168 47.5109 47.3666 17.8611 83.9414 17.8611C120.516 17.8611 150.166 47.5109 150.166 84.0857C150.166 107.05 138.475 127.282 120.735 139.157C119.211 140.177 117.156 139.841 116.036 138.389L81.1811 93.1851C80.7109 92.5752 80.4559 91.8268 80.4559 91.0567V49.2307C80.4559 47.3057 82.0164 45.7452 83.9414 45.7452C85.8664 45.7452 87.4269 47.3057 87.4269 49.2307V89.869L119.512 131.48C133.9 120.663 143.195 103.459 143.195 84.0857C143.195 51.3609 116.666 24.8322 83.9414 24.8322Z" fill="#B99272"/></svg>